<?xml version="1.0"?>
<svg xmlns="http://www.w3.org/2000/svg" version="1.1" width="580.3448486328125pt" height="411.2069091796875pt" viewBox="-148.57241722633103 -11.372196559248323 580.3448275862069 411.2068965517242" preserveAspectRatio="none" xmlns:xlink="http://www.w3.org/1999/xlink">
  <defs>
  </defs>
  <path d="M207.76551818847656,153.63729858398438 L246.08587646484375,139.74783325195312 " stroke="#6E6E6E" fill="none" stroke-width="1" stroke-opacity="1" />
  <path d="M251.4447021484375,137.80548095703125 L246.84234619140625,141.8349609375 L245.32936096191406,137.66070556640625 L251.4447021484375,137.80548095703125 " stroke="none" fill="#6E6E6E" fill-rule="evenodd" stroke-width="0" fill-opacity="1" />
  <path d="M251.4447021484375,137.80548095703125 L246.84234619140625,141.8349609375 L245.32936096191406,137.66070556640625 L251.4447021484375,137.80548095703125 " stroke="#6E6E6E" fill="none" stroke-width="1" stroke-opacity="1" />
  <path d="M207.76551818847656,175.73875427246094 L246.89859008789062,184.8046417236328 " stroke="#6E6E6E" fill="none" stroke-width="1" stroke-opacity="1" />
  <path d="M252.45150756835938,186.09109497070312 L246.3975372314453,186.96737670898438 L247.3996124267578,182.64193725585938 L252.45150756835938,186.09109497070312 " stroke="none" fill="#6E6E6E" fill-rule="evenodd" stroke-width="0" fill-opacity="1" />
  <path d="M252.45150756835938,186.09109497070312 L246.3975372314453,186.96737670898438 L247.3996124267578,182.64193725585938 L252.45150756835938,186.09109497070312 " stroke="#6E6E6E" fill="none" stroke-width="1" stroke-opacity="1" />
  <path d="M70.96265411376953,59.056549072265625 L144.8581085205078,139.22943115234375 " stroke="#6E6E6E" fill="none" stroke-width="1" stroke-opacity="1" />
  <path d="M148.72117614746094,143.42068481445312 L143.2257080078125,140.7340087890625 L146.490478515625,137.72486877441406 L148.72117614746094,143.42068481445312 " stroke="none" fill="#6E6E6E" fill-rule="evenodd" stroke-width="0" fill-opacity="1" />
  <path d="M148.72117614746094,143.42068481445312 L143.2257080078125,140.7340087890625 L146.490478515625,137.72486877441406 L148.72117614746094,143.42068481445312 " stroke="#6E6E6E" fill="none" stroke-width="1" stroke-opacity="1" />
  <path d="M80.07334899902344,116.64691162109375 L129.83494567871094,144.4024200439453 " stroke="#6E6E6E" fill="none" stroke-width="1" stroke-opacity="1" />
  <path d="M134.81295776367188,147.1790008544922 L128.7535400390625,146.34121704101562 L130.91635131835938,142.463623046875 L134.81295776367188,147.1790008544922 " stroke="none" fill="#6E6E6E" fill-rule="evenodd" stroke-width="0" fill-opacity="1" />
  <path d="M134.81295776367188,147.1790008544922 L128.7535400390625,146.34121704101562 L130.91635131835938,142.463623046875 L134.81295776367188,147.1790008544922 " stroke="#6E6E6E" fill="none" stroke-width="1" stroke-opacity="1" />
  <path d="M89.31002044677734,164.63516235351562 L127.66818237304688,165.80850219726562 " stroke="#6E6E6E" fill="none" stroke-width="1" stroke-opacity="1" />
  <path d="M133.36550903320312,165.98277282714844 L127.60030364990234,168.02745056152344 L127.7360610961914,163.5895233154297 L133.36550903320312,165.98277282714844 " stroke="none" fill="#6E6E6E" fill-rule="evenodd" stroke-width="0" fill-opacity="1" />
  <path d="M133.36550903320312,165.98277282714844 L127.60030364990234,168.02745056152344 L127.7360610961914,163.5895233154297 L133.36550903320312,165.98277282714844 " stroke="#6E6E6E" fill="none" stroke-width="1" stroke-opacity="1" />
  <path d="M81.41737365722656,211.39088439941406 L128.8304901123047,187.84593200683594 " stroke="#6E6E6E" fill="none" stroke-width="1" stroke-opacity="1" />
  <path d="M133.9356689453125,185.3107452392578 L129.81787109375,189.8342742919922 L127.84310150146484,185.85760498046875 L133.9356689453125,185.3107452392578 " stroke="none" fill="#6E6E6E" fill-rule="evenodd" stroke-width="0" fill-opacity="1" />
  <path d="M133.9356689453125,185.3107452392578 L129.81787109375,189.8342742919922 L127.84310150146484,185.85760498046875 L133.9356689453125,185.3107452392578 " stroke="#6E6E6E" fill="none" stroke-width="1" stroke-opacity="1" />
  <path d="M71.80076599121094,268.2332763671875 L143.4329376220703,194.89825439453125 " stroke="#6E6E6E" fill="none" stroke-width="1" stroke-opacity="1" />
  <path d="M147.41583251953125,190.8206787109375 L145.0210418701172,196.44947814941406 L141.84483337402344,193.34701538085938 L147.41583251953125,190.8206787109375 " stroke="none" fill="#6E6E6E" fill-rule="evenodd" stroke-width="0" fill-opacity="1" />
  <path d="M147.41583251953125,190.8206787109375 L145.0210418701172,196.44947814941406 L141.84483337402344,193.34701538085938 L147.41583251953125,190.8206787109375 " stroke="#6E6E6E" fill="none" stroke-width="1" stroke-opacity="1" />
  <path d="M66.3252944946289,328.7923278808594 L152.19580078125,195.6112518310547 " stroke="#6E6E6E" fill="none" stroke-width="1" stroke-opacity="1" />
  <path d="M155.28457641601562,190.82069396972656 L154.0615997314453,196.81423950195312 L150.3300018310547,194.4082489013672 L155.28457641601562,190.82069396972656 " stroke="none" fill="#6E6E6E" fill-rule="evenodd" stroke-width="0" fill-opacity="1" />
  <path d="M155.28457641601562,190.82069396972656 L154.0615997314453,196.81423950195312 L150.3300018310547,194.4082489013672 L155.28457641601562,190.82069396972656 " stroke="#6E6E6E" fill="none" stroke-width="1" stroke-opacity="1" />
  <path d="M141.86944580078125,143.42068481445312 L199.26156616210938,143.42068481445312 L199.2615509033203,143.42068481445312 C203.9581298828125,143.42066955566406 207.76548767089844,147.22801208496094 207.76548767089844,151.9246063232422 C207.76548767089844,151.9246063232422 207.76548767089844,151.92462158203125 207.76548767089844,151.92462158203125 L207.7655029296875,151.92462158203125 L207.7655029296875,182.31674194335938 L207.76548767089844,182.31674194335938 C207.76548767089844,187.01333618164062 203.95816040039062,190.8206787109375 199.26156616210938,190.8206787109375 L199.26156616210938,190.8206787109375 L141.86944580078125,190.8206787109375 L141.86944580078125,190.8206787109375 C137.1728515625,190.8206787109375 133.36550903320312,187.01333618164062 133.36550903320312,182.31674194335938 L133.36550903320312,151.92462158203125 L133.36549377441406,151.92462158203125 C133.36549377441406,147.22802734375 137.17283630371094,143.42068481445312 141.8694305419922,143.42066955566406 " stroke="none" fill="#E7E7E7" fill-rule="evenodd" stroke-width="0" fill-opacity="1" />
  <text x="2.8770222663879395" y="35.284881591796875" dx="0" dy="0" font-family="Segoe UI" font-size="8.249999754130847pt" fill="#000000" style="text-anchor:start" transform="matrix(0.750000 0.000000 0.000000 0.750000 133.36550903320312 143.42068481445312)">CADToGDBWrap</text>
  <text x="82.23986053466797" y="35.284881591796875" dx="0" dy="0" font-family="Segoe UI" font-size="8.249999754130847pt" fill="#000000" style="text-anchor:start" transform="matrix(0.750000 0.000000 0.000000 0.750000 133.36550903320312 143.42068481445312)"> ...</text>
  <path d="M141.86944580078125,143.42068481445312 L199.26156616210938,143.42068481445312 L199.2615509033203,143.42068481445312 C203.9581298828125,143.42066955566406 207.76548767089844,147.22801208496094 207.76548767089844,151.9246063232422 C207.76548767089844,151.9246063232422 207.76548767089844,151.92462158203125 207.76548767089844,151.92462158203125 L207.7655029296875,151.92462158203125 L207.7655029296875,182.31674194335938 L207.76548767089844,182.31674194335938 C207.76548767089844,187.01333618164062 203.95816040039062,190.8206787109375 199.26156616210938,190.8206787109375 L199.26156616210938,190.8206787109375 L141.86944580078125,190.8206787109375 L141.86944580078125,190.8206787109375 C137.1728515625,190.8206787109375 133.36550903320312,187.01333618164062 133.36550903320312,182.31674194335938 L133.36550903320312,151.92462158203125 L133.36549377441406,151.92462158203125 C133.36549377441406,147.22802734375 137.17283630371094,143.42068481445312 141.8694305419922,143.42066955566406 " stroke="none" fill="none" stroke-width="0.75" stroke-opacity="0" />
  <path d="M320.9585876464844,126.09309387207031 C320.9585876464844,139.18223571777344 304.3035888671875,149.7930908203125 283.75860595703125,149.7930908203125 C263.213623046875,149.79310607910156 246.55860900878906,139.1822509765625 246.55859375,126.0931167602539 L246.55859375,126.0931167602539 C246.55857849121094,113.00396728515625 263.21356201171875,102.39311218261719 283.758544921875,102.39310455322266 C304.3035583496094,102.3930892944336 320.95855712890625,113.00393676757812 320.9585876464844,126.09310150146484 C320.9585876464844,126.09310150146484 320.9585876464844,126.09310150146484 320.9585876464844,126.09310150146484 " stroke="none" fill="#E7E7E7" fill-rule="evenodd" stroke-width="0" fill-opacity="1" />
  <text x="16.53785514831543" y="35.284881591796875" dx="0" dy="0" font-family="Segoe UI" font-size="8.249999754130847pt" fill="#000000" style="text-anchor:start" transform="matrix(0.750000 0.000000 0.000000 0.750000 246.55860900878906 102.39310455322266)">Output GDB</text>
  <path d="M320.9585876464844,126.09309387207031 C320.9585876464844,139.18223571777344 304.3035888671875,149.7930908203125 283.75860595703125,149.7930908203125 C263.213623046875,149.79310607910156 246.55860900878906,139.1822509765625 246.55859375,126.0931167602539 L246.55859375,126.0931167602539 C246.55857849121094,113.00396728515625 263.21356201171875,102.39311218261719 283.758544921875,102.39310455322266 C304.3035583496094,102.3930892944336 320.95855712890625,113.00393676757812 320.9585876464844,126.09310150146484 C320.9585876464844,126.09310150146484 320.9585876464844,126.09310150146484 320.9585876464844,126.09310150146484 " stroke="none" fill="none" stroke-width="0.75" stroke-opacity="0" />
  <path d="M324.57928466796875,194.1827392578125 C324.57928466796875,207.2718963623047 307.9242858886719,217.88275146484375 287.3793029785156,217.88275146484375 C266.8343200683594,217.88275146484375 250.17930603027344,207.27191162109375 250.17929077148438,194.18276977539062 L250.17929077148438,194.18276977539062 C250.1792755126953,181.09361267089844 266.8342590332031,170.48275756835938 287.3792419433594,170.48275756835938 C307.92425537109375,170.4827423095703 324.5792541503906,181.0935821533203 324.57928466796875,194.18275451660156 C324.57928466796875,194.18275451660156 324.57928466796875,194.18275451660156 324.57928466796875,194.18275451660156 " stroke="none" fill="#E7E7E7" fill-rule="evenodd" stroke-width="0" fill-opacity="1" />
  <text x="8.994522094726562" y="27.96988296508789" dx="0" dy="0" font-family="Segoe UI" font-size="8.249999754130847pt" fill="#000000" style="text-anchor:start" transform="matrix(0.750000 0.000000 0.000000 0.750000 250.17930603027344 170.48275756835938)">Output Staging </text>
  <text x="28.06268882751465" y="42.599884033203125" dx="0" dy="0" font-family="Segoe UI" font-size="8.249999754130847pt" fill="#000000" style="text-anchor:start" transform="matrix(0.750000 0.000000 0.000000 0.750000 250.17930603027344 170.48275756835938)">Dataset</text>
  <path d="M324.57928466796875,194.1827392578125 C324.57928466796875,207.2718963623047 307.9242858886719,217.88275146484375 287.3793029785156,217.88275146484375 C266.8343200683594,217.88275146484375 250.17930603027344,207.27191162109375 250.17929077148438,194.18276977539062 L250.17929077148438,194.18276977539062 C250.1792755126953,181.09361267089844 266.8342590332031,170.48275756835938 287.3792419433594,170.48275756835938 C307.92425537109375,170.4827423095703 324.5792541503906,181.0935821533203 324.57928466796875,194.18275451660156 C324.57928466796875,194.18275451660156 324.57928466796875,194.18275451660156 324.57928466796875,194.18275451660156 " stroke="none" fill="none" stroke-width="0.75" stroke-opacity="0" />
  <path d="M89.39998626708984,38.69999313354492 C89.39998626708984,51.78913879394531 72.74497985839844,62.399993896484375 52.20001220703125,62.39999771118164 C31.655027389526367,62.400001525878906 15.000014305114746,51.78915786743164 14.99999713897705,38.70001220703125 L14.999994277954102,38.700016021728516 C14.999977111816406,25.610868453979492 31.65497398376465,15.000008583068848 52.1999626159668,15 C72.74494934082031,14.99998950958252 89.39996337890625,25.61083221435547 89.39998626708984,38.69999694824219 C89.39998626708984,38.69999694824219 89.39998626708984,38.69999694824219 89.39998626708984,38.69999694824219 " stroke="none" fill="#70AECC" fill-rule="evenodd" stroke-width="0" fill-opacity="1" />
  <text x="6.968522548675537" y="35.284881591796875" dx="0" dy="0" font-family="Segoe UI" font-size="8.249999754130847pt" fill="#000000" style="text-anchor:start" transform="matrix(0.750000 0.000000 0.000000 0.750000 15 15)">Input CAD Folder</text>
  <path d="M89.39998626708984,38.69999313354492 C89.39998626708984,51.78913879394531 72.74497985839844,62.399993896484375 52.20001220703125,62.39999771118164 C31.655027389526367,62.400001525878906 15.000014305114746,51.78915786743164 14.99999713897705,38.70001220703125 L14.999994277954102,38.700016021728516 C14.999977111816406,25.610868453979492 31.65497398376465,15.000008583068848 52.1999626159668,15 C72.74494934082031,14.99998950958252 89.39996337890625,25.61083221435547 89.39998626708984,38.69999694824219 C89.39998626708984,38.69999694824219 89.39998626708984,38.69999694824219 89.39998626708984,38.69999694824219 " stroke="none" fill="none" stroke-width="0.75" stroke-opacity="0" />
  <path d="M89.39998626708984,101.09999084472656 C89.39998626708984,114.18914031982422 72.74497985839844,124.79999542236328 52.20001220703125,124.79999542236328 C31.655027389526367,124.80000305175781 15.000014305114746,114.18915557861328 14.99999713897705,101.10001373291016 L14.999994277954102,101.10001373291016 C14.999977111816406,88.0108642578125 31.65497398376465,77.40000915527344 52.1999626159668,77.4000015258789 C72.74494934082031,77.39998626708984 89.39996337890625,88.01083374023438 89.39998626708984,101.0999984741211 C89.39998626708984,101.0999984741211 89.39998626708984,101.0999984741211 89.39998626708984,101.0999984741211 " stroke="none" fill="#70AECC" fill-rule="evenodd" stroke-width="0" fill-opacity="1" />
  <text x="12.054521560668945" y="35.284881591796875" dx="0" dy="0" font-family="Segoe UI" font-size="8.249999754130847pt" fill="#000000" style="text-anchor:start" transform="matrix(0.750000 0.000000 0.000000 0.750000 15 77.4000015258789)">Output Folder</text>
  <path d="M89.39998626708984,101.09999084472656 C89.39998626708984,114.18914031982422 72.74497985839844,124.79999542236328 52.20001220703125,124.79999542236328 C31.655027389526367,124.80000305175781 15.000014305114746,114.18915557861328 14.99999713897705,101.10001373291016 L14.999994277954102,101.10001373291016 C14.999977111816406,88.0108642578125 31.65497398376465,77.40000915527344 52.1999626159668,77.4000015258789 C72.74494934082031,77.39998626708984 89.39996337890625,88.01083374023438 89.39998626708984,101.0999984741211 C89.39998626708984,101.0999984741211 89.39998626708984,101.0999984741211 89.39998626708984,101.0999984741211 " stroke="none" fill="none" stroke-width="0.75" stroke-opacity="0" />
  <path d="M89.39998626708984,163.49998474121094 C89.39998626708984,176.58914184570312 72.74497985839844,187.1999969482422 52.20001220703125,187.1999969482422 C31.655027389526367,187.1999969482422 15.000014305114746,176.5891571044922 14.99999713897705,163.50001525878906 L14.999994277954102,163.50001525878906 C14.999977111816406,150.41085815429688 31.65497398376465,139.8000030517578 52.1999626159668,139.8000030517578 C72.74494934082031,139.79998779296875 89.39996337890625,150.41082763671875 89.39998626708984,163.5 C89.39998626708984,163.5 89.39998626708984,163.5 89.39998626708984,163.5 " stroke="none" fill="#E7E7E7" fill-rule="evenodd" stroke-width="0" fill-opacity="1" />
  <text x="1.1803556680679321" y="20.654884338378906" dx="0" dy="0" font-family="Segoe UI" font-size="8.249999754130847pt" fill="#000000" style="text-anchor:start" transform="matrix(0.750000 0.000000 0.000000 0.750000 15 139.8000030517578)">Coordinate System </text>
  <text x="7.638522624969482" y="35.284881591796875" dx="0" dy="0" font-family="Segoe UI" font-size="8.249999754130847pt" fill="#000000" style="text-anchor:start" transform="matrix(0.750000 0.000000 0.000000 0.750000 15 139.8000030517578)">of the CAD Data </text>
  <text x="37.6605224609375" y="49.91488265991211" dx="0" dy="0" font-family="Segoe UI" font-size="8.249999754130847pt" fill="#000000" style="text-anchor:start" transform="matrix(0.750000 0.000000 0.000000 0.750000 15 139.8000030517578)">(.prj)</text>
  <path d="M89.39998626708984,163.49998474121094 C89.39998626708984,176.58914184570312 72.74497985839844,187.1999969482422 52.20001220703125,187.1999969482422 C31.655027389526367,187.1999969482422 15.000014305114746,176.5891571044922 14.99999713897705,163.50001525878906 L14.999994277954102,163.50001525878906 C14.999977111816406,150.41085815429688 31.65497398376465,139.8000030517578 52.1999626159668,139.8000030517578 C72.74494934082031,139.79998779296875 89.39996337890625,150.41082763671875 89.39998626708984,163.5 C89.39998626708984,163.5 89.39998626708984,163.5 89.39998626708984,163.5 " stroke="none" fill="none" stroke-width="0.75" stroke-opacity="0" />
  <path d="M89.39998626708984,225.8999786376953 C89.39998626708984,238.9891357421875 72.74497985839844,249.59999084472656 52.20001220703125,249.59999084472656 C31.655027389526367,249.59999084472656 15.000014305114746,238.98915100097656 14.99999713897705,225.90000915527344 L14.999994277954102,225.90000915527344 C14.999977111816406,212.81085205078125 31.65497398376465,202.1999969482422 52.1999626159668,202.1999969482422 C72.74494934082031,202.19998168945312 89.39996337890625,212.81082153320312 89.39998626708984,225.89999389648438 C89.39998626708984,225.89999389648438 89.39998626708984,225.89999389648438 89.39998626708984,225.89999389648438 " stroke="none" fill="#E7E7E7" fill-rule="evenodd" stroke-width="0" fill-opacity="1" />
  <text x="14.368188858032227" y="35.284881591796875" dx="0" dy="0" font-family="Segoe UI" font-size="8.249999754130847pt" fill="#000000" style="text-anchor:start" transform="matrix(0.750000 0.000000 0.000000 0.750000 15 202.1999969482422)">Project Name</text>
  <path d="M89.39998626708984,225.8999786376953 C89.39998626708984,238.9891357421875 72.74497985839844,249.59999084472656 52.20001220703125,249.59999084472656 C31.655027389526367,249.59999084472656 15.000014305114746,238.98915100097656 14.99999713897705,225.90000915527344 L14.999994277954102,225.90000915527344 C14.999977111816406,212.81085205078125 31.65497398376465,202.1999969482422 52.1999626159668,202.1999969482422 C72.74494934082031,202.19998168945312 89.39996337890625,212.81082153320312 89.39998626708984,225.89999389648438 C89.39998626708984,225.89999389648438 89.39998626708984,225.89999389648438 89.39998626708984,225.89999389648438 " stroke="none" fill="none" stroke-width="0.75" stroke-opacity="0" />
  <path d="M89.39998626708984,288.29998779296875 C89.39998626708984,301.3891296386719 72.74497985839844,312 52.20001220703125,312 C31.655027389526367,312 15.000014305114746,301.38916015625 14.99999713897705,288.3000183105469 L14.999994277954102,288.3000183105469 C14.999977111816406,275.2108459472656 31.65497398376465,264.6000061035156 52.1999626159668,264.6000061035156 C72.74494934082031,264.5999755859375 89.39996337890625,275.2108154296875 89.39998626708984,288.29998779296875 C89.39998626708984,288.29998779296875 89.39998626708984,288.29998779296875 89.39998626708984,288.29998779296875 " stroke="none" fill="#52C0CC" fill-rule="evenodd" stroke-width="0" fill-opacity="1" />
  <text x="3.9273557662963867" y="35.284881591796875" dx="0" dy="0" font-family="Segoe UI" font-size="8.249999754130847pt" fill="#000000" style="text-anchor:start" transform="matrix(0.750000 0.000000 0.000000 0.750000 15 264.6000061035156)">Auto Add To Map</text>
  <path d="M89.39998626708984,288.29998779296875 C89.39998626708984,301.3891296386719 72.74497985839844,312 52.20001220703125,312 C31.655027389526367,312 15.000014305114746,301.38916015625 14.99999713897705,288.3000183105469 L14.999994277954102,288.3000183105469 C14.999977111816406,275.2108459472656 31.65497398376465,264.6000061035156 52.1999626159668,264.6000061035156 C72.74494934082031,264.5999755859375 89.39996337890625,275.2108154296875 89.39998626708984,288.29998779296875 C89.39998626708984,288.29998779296875 89.39998626708984,288.29998779296875 89.39998626708984,288.29998779296875 " stroke="none" fill="none" stroke-width="0.75" stroke-opacity="0" />
  <path d="M89.39998626708984,350.6999816894531 C89.39998626708984,363.78912353515625 72.74497985839844,374.3999938964844 52.20001220703125,374.3999938964844 C31.655027389526367,374.3999938964844 15.000014305114746,363.7891540527344 14.99999713897705,350.70001220703125 L14.999994277954102,350.70001220703125 C14.999977111816406,337.61083984375 31.65497398376465,327 52.1999626159668,327 C72.74494934082031,326.9999694824219 89.39996337890625,337.6108093261719 89.39998626708984,350.6999816894531 C89.39998626708984,350.6999816894531 89.39998626708984,350.6999816894531 89.39998626708984,350.6999816894531 " stroke="none" fill="#52C0CC" fill-rule="evenodd" stroke-width="0" fill-opacity="1" />
  <text x="4.401022434234619" y="35.284881591796875" dx="0" dy="0" font-family="Segoe UI" font-size="8.249999754130847pt" fill="#000000" style="text-anchor:start" transform="matrix(0.750000 0.000000 0.000000 0.750000 15 327)">Search subfolders</text>
  <path d="M89.39998626708984,350.6999816894531 C89.39998626708984,363.78912353515625 72.74497985839844,374.3999938964844 52.20001220703125,374.3999938964844 C31.655027389526367,374.3999938964844 15.000014305114746,363.7891540527344 14.99999713897705,350.70001220703125 L14.999994277954102,350.70001220703125 C14.999977111816406,337.61083984375 31.65497398376465,327 52.1999626159668,327 C72.74494934082031,326.9999694824219 89.39996337890625,337.6108093261719 89.39998626708984,350.6999816894531 C89.39998626708984,350.6999816894531 89.39998626708984,350.6999816894531 89.39998626708984,350.6999816894531 " stroke="none" fill="none" stroke-width="0.75" stroke-opacity="0" />
  <path d="M96.89998626708984,21.562498092651367 C96.89998626708984,25.704631805419922 93.54212188720703,29.062498092651367 89.39999389648438,29.062498092651367 C85.25785827636719,29.0625 81.89999389648438,25.704639434814453 81.89999389648438,21.562503814697266 L81.89998626708984,21.5625057220459 C81.89998626708984,17.42037010192871 85.25785064697266,14.06250286102295 89.39997863769531,14.0625 C93.5421142578125,14.062492370605469 96.89997863769531,17.420351028442383 96.89998626708984,21.562498092651367 C96.89998626708984,21.562498092651367 96.89998626708984,21.5625 96.89998626708984,21.5625 " stroke="none" fill="none" fill-rule="evenodd" stroke-width="0" fill-opacity="0" />
  <text x="2.7061891555786133" y="15.29671859741211" dx="0" dy="0" font-family="Arial" font-size="8.999999731779106pt" fill="#555555" style="text-anchor:start" font-weight="bold" transform="matrix(0.750000 0.000000 0.000000 0.750000 81.89999389648438 14.0625)">P</text>
  <path d="M96.89998626708984,21.562498092651367 C96.89998626708984,25.704631805419922 93.54212188720703,29.062498092651367 89.39999389648438,29.062498092651367 C85.25785827636719,29.0625 81.89999389648438,25.704639434814453 81.89999389648438,21.562503814697266 L81.89998626708984,21.5625057220459 C81.89998626708984,17.42037010192871 85.25785064697266,14.06250286102295 89.39997863769531,14.0625 C93.5421142578125,14.062492370605469 96.89997863769531,17.420351028442383 96.89998626708984,21.562498092651367 C96.89998626708984,21.562498092651367 96.89998626708984,21.5625 96.89998626708984,21.5625 " stroke="none" fill="none" stroke-width="0.75" stroke-opacity="0" />
  <path d="M96.89998626708984,83.96249389648438 C96.89998626708984,88.10462951660156 93.54212188720703,91.46249389648438 89.39999389648438,91.46249389648438 C85.25785827636719,91.4625015258789 81.89999389648438,88.1046371459961 81.89999389648438,83.9625015258789 L81.89998626708984,83.9625015258789 C81.89998626708984,79.82036590576172 85.25785064697266,76.4625015258789 89.39997863769531,76.4625015258789 C93.5421142578125,76.46249389648438 96.89997863769531,79.82035064697266 96.89998626708984,83.96249389648438 C96.89998626708984,83.96249389648438 96.89998626708984,83.9625015258789 96.89998626708984,83.9625015258789 " stroke="none" fill="none" fill-rule="evenodd" stroke-width="0" fill-opacity="0" />
  <text x="2.7061891555786133" y="15.29671859741211" dx="0" dy="0" font-family="Arial" font-size="8.999999731779106pt" fill="#555555" style="text-anchor:start" font-weight="bold" transform="matrix(0.750000 0.000000 0.000000 0.750000 81.89999389648438 76.4625015258789)">P</text>
  <path d="M96.89998626708984,83.96249389648438 C96.89998626708984,88.10462951660156 93.54212188720703,91.46249389648438 89.39999389648438,91.46249389648438 C85.25785827636719,91.4625015258789 81.89999389648438,88.1046371459961 81.89999389648438,83.9625015258789 L81.89998626708984,83.9625015258789 C81.89998626708984,79.82036590576172 85.25785064697266,76.4625015258789 89.39997863769531,76.4625015258789 C93.5421142578125,76.46249389648438 96.89997863769531,79.82035064697266 96.89998626708984,83.96249389648438 C96.89998626708984,83.96249389648438 96.89998626708984,83.9625015258789 96.89998626708984,83.9625015258789 " stroke="none" fill="none" stroke-width="0.75" stroke-opacity="0" />
  <path d="M96.89998626708984,208.76248168945312 C96.89998626708984,212.9046173095703 93.54212188720703,216.26248168945312 89.39999389648438,216.26248168945312 C85.25785827636719,216.2624969482422 81.89999389648438,212.90463256835938 81.89999389648438,208.7624969482422 L81.89998626708984,208.7624969482422 C81.89998626708984,204.620361328125 85.25785064697266,201.2624969482422 89.39997863769531,201.2624969482422 C93.5421142578125,201.26248168945312 96.89997863769531,204.62034606933594 96.89998626708984,208.76248168945312 C96.89998626708984,208.76248168945312 96.89998626708984,208.7624969482422 96.89998626708984,208.7624969482422 " stroke="none" fill="none" fill-rule="evenodd" stroke-width="0" fill-opacity="0" />
  <text x="2.7061891555786133" y="15.29671859741211" dx="0" dy="0" font-family="Arial" font-size="8.999999731779106pt" fill="#555555" style="text-anchor:start" font-weight="bold" transform="matrix(0.750000 0.000000 0.000000 0.750000 81.89999389648438 201.2624969482422)">P</text>
  <path d="M96.89998626708984,208.76248168945312 C96.89998626708984,212.9046173095703 93.54212188720703,216.26248168945312 89.39999389648438,216.26248168945312 C85.25785827636719,216.2624969482422 81.89999389648438,212.90463256835938 81.89999389648438,208.7624969482422 L81.89998626708984,208.7624969482422 C81.89998626708984,204.620361328125 85.25785064697266,201.2624969482422 89.39997863769531,201.2624969482422 C93.5421142578125,201.26248168945312 96.89997863769531,204.62034606933594 96.89998626708984,208.76248168945312 C96.89998626708984,208.76248168945312 96.89998626708984,208.7624969482422 96.89998626708984,208.7624969482422 " stroke="none" fill="none" stroke-width="0.75" stroke-opacity="0" />
  <path d="M96.89998626708984,271.1624755859375 C96.89998626708984,275.30462646484375 93.54212188720703,278.6624755859375 89.39999389648438,278.6624755859375 C85.25785827636719,278.6625061035156 81.89999389648438,275.30462646484375 81.89999389648438,271.1625061035156 L81.89998626708984,271.1625061035156 C81.89998626708984,267.0203552246094 85.25785064697266,263.6625061035156 89.39997863769531,263.6625061035156 C93.5421142578125,263.6624755859375 96.89997863769531,267.0203552246094 96.89998626708984,271.1624755859375 C96.89998626708984,271.1624755859375 96.89998626708984,271.1625061035156 96.89998626708984,271.1625061035156 " stroke="none" fill="none" fill-rule="evenodd" stroke-width="0" fill-opacity="0" />
  <text x="2.7061891555786133" y="15.29671859741211" dx="0" dy="0" font-family="Arial" font-size="8.999999731779106pt" fill="#555555" style="text-anchor:start" font-weight="bold" transform="matrix(0.750000 0.000000 0.000000 0.750000 81.89999389648438 263.6625061035156)">P</text>
  <path d="M96.89998626708984,271.1624755859375 C96.89998626708984,275.30462646484375 93.54212188720703,278.6624755859375 89.39999389648438,278.6624755859375 C85.25785827636719,278.6625061035156 81.89999389648438,275.30462646484375 81.89999389648438,271.1625061035156 L81.89998626708984,271.1625061035156 C81.89998626708984,267.0203552246094 85.25785064697266,263.6625061035156 89.39997863769531,263.6625061035156 C93.5421142578125,263.6624755859375 96.89997863769531,267.0203552246094 96.89998626708984,271.1624755859375 C96.89998626708984,271.1624755859375 96.89998626708984,271.1625061035156 96.89998626708984,271.1625061035156 " stroke="none" fill="none" stroke-width="0.75" stroke-opacity="0" />
  <path d="M96.89998626708984,146.36248779296875 C96.89998626708984,150.50462341308594 93.54212188720703,153.86248779296875 89.39999389648438,153.86248779296875 C85.25785827636719,153.8625030517578 81.89999389648438,150.504638671875 81.89999389648438,146.3625030517578 L81.89998626708984,146.3625030517578 C81.89998626708984,142.22036743164062 85.25785064697266,138.8625030517578 89.39997863769531,138.8625030517578 C93.5421142578125,138.86248779296875 96.89997863769531,142.22035217285156 96.89998626708984,146.36248779296875 C96.89998626708984,146.36248779296875 96.89998626708984,146.3625030517578 96.89998626708984,146.3625030517578 " stroke="none" fill="none" fill-rule="evenodd" stroke-width="0" fill-opacity="0" />
  <text x="2.7061891555786133" y="15.29671859741211" dx="0" dy="0" font-family="Arial" font-size="8.999999731779106pt" fill="#555555" style="text-anchor:start" font-weight="bold" transform="matrix(0.750000 0.000000 0.000000 0.750000 81.89999389648438 138.8625030517578)">P</text>
  <path d="M96.89998626708984,146.36248779296875 C96.89998626708984,150.50462341308594 93.54212188720703,153.86248779296875 89.39999389648438,153.86248779296875 C85.25785827636719,153.8625030517578 81.89999389648438,150.504638671875 81.89999389648438,146.3625030517578 L81.89998626708984,146.3625030517578 C81.89998626708984,142.22036743164062 85.25785064697266,138.8625030517578 89.39997863769531,138.8625030517578 C93.5421142578125,138.86248779296875 96.89997863769531,142.22035217285156 96.89998626708984,146.36248779296875 C96.89998626708984,146.36248779296875 96.89998626708984,146.3625030517578 96.89998626708984,146.3625030517578 " stroke="none" fill="none" stroke-width="0.75" stroke-opacity="0" />
  <path d="M96.89998626708984,333.5624694824219 C96.89998626708984,337.7046203613281 93.54212188720703,341.0624694824219 89.39999389648438,341.0624694824219 C85.25785827636719,341.0625 81.89999389648438,337.7046203613281 81.89999389648438,333.5625 L81.89998626708984,333.5625 C81.89998626708984,329.42034912109375 85.25785064697266,326.0625 89.39997863769531,326.0625 C93.5421142578125,326.0624694824219 96.89997863769531,329.42034912109375 96.89998626708984,333.5624694824219 C96.89998626708984,333.5624694824219 96.89998626708984,333.5625 96.89998626708984,333.5625 " stroke="none" fill="none" fill-rule="evenodd" stroke-width="0" fill-opacity="0" />
  <text x="2.7061891555786133" y="15.29671859741211" dx="0" dy="0" font-family="Arial" font-size="8.999999731779106pt" fill="#555555" style="text-anchor:start" font-weight="bold" transform="matrix(0.750000 0.000000 0.000000 0.750000 81.89999389648438 326.0625)">P</text>
  <path d="M96.89998626708984,333.5624694824219 C96.89998626708984,337.7046203613281 93.54212188720703,341.0624694824219 89.39999389648438,341.0624694824219 C85.25785827636719,341.0625 81.89999389648438,337.7046203613281 81.89999389648438,333.5625 L81.89998626708984,333.5625 C81.89998626708984,329.42034912109375 85.25785064697266,326.0625 89.39997863769531,326.0625 C93.5421142578125,326.0624694824219 96.89997863769531,329.42034912109375 96.89998626708984,333.5624694824219 C96.89998626708984,333.5624694824219 96.89998626708984,333.5625 96.89998626708984,333.5625 " stroke="none" fill="none" stroke-width="0.75" stroke-opacity="0" />
</svg>